<svg id="computer" xmlns="http://www.w3.org/2000/svg" width="49.312" height="49.312" viewBox="0 0 49.312 49.312">
  <path id="Path_9" data-name="Path 9" d="M306.963,346a.963.963,0,1,0,.963.963A.963.963,0,0,0,306.963,346Zm0,0" transform="translate(-276.528 -312.676)" fill="#d8d8d8"/>
  <path id="Path_10" data-name="Path 10" d="M44.5,0H4.816A4.821,4.821,0,0,0,0,4.816V34.287A4.821,4.821,0,0,0,4.816,39.1H19.84v4.43h-.963a4.817,4.817,0,0,0-4.816,4.816.963.963,0,0,0,.963.963H34.287a.963.963,0,0,0,.963-.963,4.821,4.821,0,0,0-4.816-4.816h-.963V39.1H44.5a4.821,4.821,0,0,0,4.816-4.816V4.816A4.821,4.821,0,0,0,44.5,0ZM4.816,1.926H44.5a2.893,2.893,0,0,1,2.889,2.889V29.472h-4.43V7.32a.963.963,0,0,0-.963-.963h-7.7a.963.963,0,0,0-.963.963V29.472H28.5c-.01-1-.036-1.978-.077-2.931a61.951,61.951,0,0,0-.752-7.706,4.816,4.816,0,0,0,1.315-6.282L25.65,6.772a.963.963,0,0,0-1.668,0l-3.34,5.782a4.815,4.815,0,0,0,1.06,6.078,61.137,61.137,0,0,0-.812,7.907c-.043.963-.071,1.945-.081,2.933H15.988V15.025a.958.958,0,0,0-.1-.416s0-.01-.006-.015l-3.852-7.7a.963.963,0,0,0-1.723,0l-3.852,7.7-.006.015a.957.957,0,0,0-.1.416V29.472H1.926V4.816A2.893,2.893,0,0,1,4.816,1.926ZM35.25,29.472V8.283h5.779v1.926h-.963a.963.963,0,0,0,0,1.926h.963v2.889h-.963a.963.963,0,0,0,0,1.926h.963V19.84h-.963a.963.963,0,0,0,0,1.926h.963v3.852h-.963a.963.963,0,0,0,0,1.926h.963v1.926Zm-10.434-9.7a4.822,4.822,0,0,0,1.039-.115c.179,1.146.441,3.173.6,5.961H22.867c.163-2.786.438-4.845.628-6.029A4.822,4.822,0,0,0,24.816,19.774Zm0-1.926a2.893,2.893,0,0,1-2.505-4.331l2.505-4.337,2.5,4.337A2.891,2.891,0,0,1,24.816,17.847Zm-2.038,9.7h3.758c.02.633.034,1.277.041,1.926H22.735C22.742,28.826,22.757,28.182,22.778,27.545ZM12.135,29.472V15.988h1.926V29.472Zm-3.852,0V15.988h1.926V29.472Zm.6-15.41,2.294-4.588,2.294,4.588ZM33.159,47.386H16.152a2.9,2.9,0,0,1,2.725-1.926H30.435A2.894,2.894,0,0,1,33.159,47.386Zm-5.614-3.852H21.767V39.1h5.779ZM44.5,37.177H4.816a2.893,2.893,0,0,1-2.889-2.889V31.4H47.386v2.889A2.893,2.893,0,0,1,44.5,37.177Zm0,0" fill="#d8d8d8"/>
  <path id="Path_11" data-name="Path 11" d="M212.742,346h-5.779a.963.963,0,1,0,0,1.926h5.779a.963.963,0,1,0,0-1.926Zm0,0" transform="translate(-186.16 -312.676)" fill="#d8d8d8"/>
</svg>
