<svg xmlns="http://www.w3.org/2000/svg" width="48.893" height="48.894" viewBox="0 0 48.893 48.894">
  <g id="drawing-tablet" transform="translate(-0.5 0)">
    <path id="Path_12" data-name="Path 12" d="M293.451,393.91a.955.955,0,1,0-.955-.955A.955.955,0,0,0,293.451,393.91Zm0,0" transform="translate(-264.112 -354.566)" fill="#d8d8d8"/>
    <path id="Path_13" data-name="Path 13" d="M42.41,292a1.91,1.91,0,1,0,1.91,1.91A1.909,1.909,0,0,0,42.41,292Zm0,0" transform="translate(-36.18 -264.119)" fill="#d8d8d8"/>
    <path id="Path_14" data-name="Path 14" d="M44.618,10.7H42l4.175-4.175a3.819,3.819,0,1,0-5.4-5.4L31.195,10.7H5.275A4.78,4.78,0,0,0,.5,15.47V44.118a4.78,4.78,0,0,0,4.775,4.775H44.618a4.78,4.78,0,0,0,4.775-4.775V15.47A4.78,4.78,0,0,0,44.618,10.7ZM22.8,22.221A2.874,2.874,0,0,1,23.49,21.1l.038-.038,2.7,2.7-.038.038a2.88,2.88,0,0,1-1.121.692l-3.409,1.137ZM22.14,19.75a4.792,4.792,0,0,0-1.153,1.867l-1.664,4.991-1.234,1.151a.955.955,0,1,0,1.3,1.4l1.26-1.175,5.024-1.675a4.8,4.8,0,0,0,1.868-1.154l6.817-6.817h7.394V41.253H11.959V18.335h11.6Zm5.439,2.663-2.7-2.7L39.421,5.171l2.7,2.7ZM42.122,2.47a1.909,1.909,0,1,1,2.7,2.7l-1.35,1.35-2.7-2.7Zm5.361,41.649a2.868,2.868,0,0,1-2.865,2.865H5.275A2.868,2.868,0,0,1,2.41,44.118V15.47a2.868,2.868,0,0,1,2.865-2.864h24.01l-3.82,3.819H11a.955.955,0,0,0-.955.955V42.208a.955.955,0,0,0,.955.955h31.7a.955.955,0,0,0,.955-.955V17.38a.955.955,0,0,0-.955-.955h-6.44l3.82-3.819h4.53a2.868,2.868,0,0,1,2.865,2.864Zm0,0" transform="translate(0 0)" fill="#d8d8d8"/>
    <path id="Path_15" data-name="Path 15" d="M333.447,321.553h5.73a.955.955,0,0,0,.955-.955v-7.639a.955.955,0,1,0-1.91,0v6.684h-4.775a.955.955,0,1,0,0,1.91Zm0,0" transform="translate(-300.289 -282.21)" fill="#d8d8d8"/>
    <path id="Path_16" data-name="Path 16" d="M51.455,217.734a.955.955,0,0,0,.955-.955v-3.82a.955.955,0,0,0-1.91,0v3.82A.955.955,0,0,0,51.455,217.734Zm0,0" transform="translate(-45.225 -191.759)" fill="#d8d8d8"/>
    <path id="Path_17" data-name="Path 17" d="M51.455,352a.955.955,0,0,0-.955.955v3.819a.955.955,0,1,0,1.91,0v-3.819A.955.955,0,0,0,51.455,352Zm0,0" transform="translate(-45.225 -318.39)" fill="#d8d8d8"/>
  </g>
</svg>
