<svg xmlns="http://www.w3.org/2000/svg" width="48.875" height="46.447" viewBox="0 0 48.875 46.447">
  <g id="paint-palette" transform="translate(-0.001 0)">
    <path id="Path_18" data-name="Path 18" d="M317.134,131.28a.954.954,0,1,0,1.33.235A.956.956,0,0,0,317.134,131.28Zm0,0" transform="translate(-286.491 -118.592)" fill="#d8d8d8"/>
    <path id="Path_19" data-name="Path 19" d="M354.316,61.747l-5.757,4.45a.955.955,0,0,0,1.168,1.51l5.757-4.45a.955.955,0,1,0-1.168-1.511Zm0,0" transform="translate(-314.949 -55.673)" fill="#d8d8d8"/>
    <path id="Path_20" data-name="Path 20" d="M46.606,6.249c2.108-2.6,2.727-4.327,1.946-5.442-.843-1.2-2.786-1.066-6.3.449A66.885,66.885,0,0,0,33.122,6.3C25.2.932,16.21-.229,9.522,3.288,3.276,6.572-.1,13.374,0,22.439A24,24,0,0,0,3.392,35.117c1.9,3.019,4.393,4.987,6.836,5.4a4.518,4.518,0,0,0,5.237-3.2c.741-2.055.218-4.746,3.035-5.867a3.29,3.29,0,0,1,4.239,1.873c2.461,5.368,3.45,10.285,9.4,12.375,5.311,1.865,9.931.174,12.75-4.091,4.394-6.646,3.961-19.136-4.64-29.07A49.476,49.476,0,0,0,46.606,6.249Zm-3.313,34.3c-2.435,3.684-6.173,4.871-10.525,3.343-5.046-1.773-5.879-6.1-8.294-11.369a5.212,5.212,0,0,0-6.68-2.852c-3.905,1.553-3.5,5.27-4.126,6.993a2.633,2.633,0,0,1-3.123,1.969c-3.41-.575-8.513-6.127-8.633-16.217-.1-8.312,2.919-14.5,8.5-17.438,5.879-3.091,13.812-2.133,20.977,2.461-.5.337-1,.68-1.495,1.025a71.161,71.161,0,0,0-6.028,4.7l0,0,0,0A35.785,35.785,0,0,0,19.065,18.1a4.773,4.773,0,0,0-5.638,2.567l-1.026,2.2a4.774,4.774,0,1,0,2.934,4.821l2.837-.248A4.77,4.77,0,0,0,22.5,23.2a34.694,34.694,0,0,0,6.184-2.742.931.931,0,0,0,.415-.229,71.216,71.216,0,0,0,6.271-3.943c1.151-.806,2.291-1.659,3.4-2.542C46.682,22.868,47.328,34.447,43.293,40.55Zm-20.987-19.3A4.752,4.752,0,0,0,20.783,19a32.486,32.486,0,0,1,3.54-3.688l2.7,3.863A32.829,32.829,0,0,1,22.306,21.255Zm-11.59,6.358a.954.954,0,0,0,.782.407c.028,0,.056,0,.084,0l1.806-.158A2.865,2.865,0,1,1,11.592,24.6l-.96,2.06A.953.953,0,0,0,10.716,27.613Zm2.345-1.642,2.1-4.5a2.864,2.864,0,1,1,2.848,4.066Zm21.211-11.25c-1.88,1.317-3.746,2.5-5.559,3.533l-2.948-4.21c1.593-1.354,3.346-2.7,5.222-4.016a78.042,78.042,0,0,1,11.5-6.792c3.1-1.4,4.194-1.357,4.473-1.3-.024.354-.422,1.432-2.132,3.464A58.894,58.894,0,0,1,34.272,14.721Zm0,0" transform="translate(0 0)" fill="#d8d8d8"/>
    <path id="Path_21" data-name="Path 21" d="M325.6,325.793a4.773,4.773,0,1,0,4.773,4.773A4.778,4.778,0,0,0,325.6,325.793Zm0,7.637a2.864,2.864,0,1,1,2.864-2.864A2.867,2.867,0,0,1,325.6,333.43Zm0,0" transform="translate(-290.201 -294.693)" fill="#d8d8d8"/>
    <path id="Path_22" data-name="Path 22" d="M345.6,205.8a4.773,4.773,0,1,0,4.773,4.773A4.778,4.778,0,0,0,345.6,205.8Zm0,7.637a2.864,2.864,0,1,1,2.864-2.864A2.867,2.867,0,0,1,345.6,213.434Zm0,0" transform="translate(-308.292 -186.152)" fill="#d8d8d8"/>
    <path id="Path_23" data-name="Path 23" d="M95.605,85.343a4.773,4.773,0,1,0-4.773-4.773A4.778,4.778,0,0,0,95.605,85.343Zm0-7.637a2.864,2.864,0,1,1-2.864,2.864A2.867,2.867,0,0,1,95.605,77.706Zm0,0" transform="translate(-82.16 -68.562)" fill="#d8d8d8"/>
  </g>
</svg>
