<svg xmlns="http://www.w3.org/2000/svg" width="78.496" height="82.734" viewBox="0 0 78.496 82.734">
  <g id="chat" transform="matrix(0.951, -0.309, 0.309, 0.951, -4.727, 19.287)">
    <path id="Path_24" data-name="Path 24" d="M46.745,13.465l-39.827.082A6.926,6.926,0,0,0,0,20.465V45.129a6.925,6.925,0,0,0,6.918,6.917H14V63.713a1.167,1.167,0,0,0,2.03.785L27.351,52.044l19.4-.079a6.926,6.926,0,0,0,6.918-6.917V20.383A6.926,6.926,0,0,0,46.745,13.465ZM11.667,25.132H26.833a1.167,1.167,0,0,1,0,2.333H11.667a1.167,1.167,0,0,1,0-2.333ZM42,41.465H11.667a1.167,1.167,0,0,1,0-2.333H42a1.167,1.167,0,1,1,0,2.333Zm0-7H11.667a1.167,1.167,0,1,1,0-2.333H42a1.167,1.167,0,1,1,0,2.333Z" transform="translate(0 1.833)" fill="#d8d8d8"/>
    <path id="Path_25" data-name="Path 25" d="M60.75,2.547,20.918,2.465A6.926,6.926,0,0,0,14,9.383v3.645l30.408-.063a9.264,9.264,0,0,1,9.259,9.252v27.1l3.8,4.184a1.167,1.167,0,0,0,2.03-.785V41.047h1.248a6.926,6.926,0,0,0,6.918-6.917V9.465A6.925,6.925,0,0,0,60.75,2.547Z" transform="translate(2.333 0)" fill="#d8d8d8"/>
  </g>
</svg>
