<svg xmlns="http://www.w3.org/2000/svg" width="23.859" height="17" viewBox="0 0 23.859 17">
  <g id="email" transform="translate(0 -33.085)">
    <path id="Path_27" data-name="Path 27" d="M167.192,48.887c0-.027.019-.054.018-.081l-7.281,7.016,7.272,6.791c0-.049-.009-.1-.009-.147Z" transform="translate(-143.351 -14.091)" fill="#fff"/>
    <path id="Path_28" data-name="Path 28" d="M25.335,126.9l-2.972,2.86a.777.777,0,0,1-1.069.009l-2.964-2.762-7.32,7.055a1.687,1.687,0,0,0,.569.114h20.49a1.685,1.685,0,0,0,.818-.225Z" transform="translate(-9.869 -84.091)" fill="#fff"/>
    <path id="Path_29" data-name="Path 29" d="M17.441,44.039l11.112-10.7a1.684,1.684,0,0,0-.858-.25H7.2a1.689,1.689,0,0,0-1.075.4Z" transform="translate(-5.495)" fill="#fff"/>
    <path id="Path_30" data-name="Path 30" d="M0,52.1V65.418a1.691,1.691,0,0,0,.073.441L7.3,58.9Z" transform="translate(0 -17.044)" fill="#fff"/>
  </g>
</svg>
