<svg xmlns="http://www.w3.org/2000/svg" width="17.54" height="23.821" viewBox="0 0 17.54 23.821">
  <g id="placeholder-filled-point" transform="translate(-12.883)">
    <path id="Path_31" data-name="Path 31" d="M21.653,0a8.78,8.78,0,0,0-8.77,8.77,8.555,8.555,0,0,0,.767,3.58,55.3,55.3,0,0,0,7.633,11.3.488.488,0,0,0,.74,0,55.323,55.323,0,0,0,7.633-11.3,8.551,8.551,0,0,0,.767-3.58A8.781,8.781,0,0,0,21.653,0Zm0,13.325A4.556,4.556,0,1,1,26.208,8.77,4.561,4.561,0,0,1,21.653,13.325Z" transform="translate(0)" fill="#fff"/>
  </g>
</svg>
